<svg width="768" height="227" viewBox="0 0 768 227" fill="none" xmlns="http://www.w3.org/2000/svg">
<path fill-rule="evenodd" clip-rule="evenodd" d="M315.601 59.9277C347.489 59.9277 374.253 81.5336 374.253 118.94C374.253 155.886 347.489 177.723 315.601 177.723C283.947 177.723 256.949 156.113 256.949 118.94C256.949 81.5336 283.947 59.9277 315.601 59.9277ZM315.601 152.167C333.057 152.167 344.692 138.689 344.692 118.94C344.692 98.724 333.057 85.7114 315.601 85.7114C298.612 85.7114 286.275 98.724 286.275 118.94C286.275 138.689 298.612 152.167 315.601 152.167Z" fill="#273348"/>
<path fill-rule="evenodd" clip-rule="evenodd" d="M488.894 175.041H460.125V109.058C460.125 93.3796 453.499 85.8934 441.857 85.8934C429.298 85.8934 419.022 95.9569 419.022 110.929V175.041H390.253V63.4305H416.967V77.4695H417.428C423.591 67.4101 435.922 59.9238 450.762 59.9238C474.28 59.9238 488.894 75.8318 488.894 103.674V175.041Z" fill="#273348"/>
<path fill-rule="evenodd" clip-rule="evenodd" d="M563.53 59.9277C595.412 59.9277 622.179 81.5336 622.179 118.94C622.179 155.886 595.412 177.723 563.53 177.723C531.876 177.723 504.878 156.113 504.878 118.94C504.878 81.5336 531.876 59.9277 563.53 59.9277ZM563.53 152.167C580.983 152.167 592.621 138.689 592.621 118.94C592.621 98.724 580.983 85.7114 563.53 85.7114C546.541 85.7114 534.204 98.724 534.204 118.94C534.204 138.689 546.541 152.167 563.53 152.167Z" fill="#273348"/>
<mask id="mask0_1155_2403" style="mask-type:alpha" maskUnits="userSpaceOnUse" x="638" y="9" width="57" height="167">
<path d="M638.182 9.05859H694.166V175.042H638.182V9.05859Z" fill="white"/>
</mask>
<g mask="url(#mask0_1155_2403)">
<path fill-rule="evenodd" clip-rule="evenodd" d="M638.182 64.3063V50.8414C638.182 24.147 652.583 9.05469 678.837 9.05469C685.344 9.05469 691.382 9.98401 694.166 10.9133V35.5199C690.683 34.826 687.664 34.3592 684.647 34.3592C672.793 34.3592 667.45 41.323 667.45 53.3919V64.3063H694.166V89.1441H667.45V175.039H638.182V89.1441V64.3063Z" fill="#273348"/>
</g>
<mask id="mask1_1155_2403" style="mask-type:alpha" maskUnits="userSpaceOnUse" x="710" y="9" width="57" height="167">
<path d="M710.161 9.05859H766.148V175.042H710.161V9.05859Z" fill="white"/>
</mask>
<g mask="url(#mask1_1155_2403)">
<path fill-rule="evenodd" clip-rule="evenodd" d="M710.161 64.3063V50.8414C710.161 24.147 724.565 9.05469 750.814 9.05469C757.321 9.05469 763.357 9.98401 766.148 10.9133V35.5199C762.66 34.826 759.641 34.3592 756.624 34.3592C744.774 34.3592 739.429 41.323 739.429 53.3919V64.3063H766.148V89.1441H739.429V175.039H710.161V89.1441V64.3063Z" fill="#273348"/>
</g>
<mask id="mask2_1155_2403" style="mask-type:alpha" maskUnits="userSpaceOnUse" x="0" y="12" width="205" height="206">
<path d="M0 12.0576H204.641V217.561H0V12.0576Z" fill="white"/>
</mask>
<g mask="url(#mask2_1155_2403)">
<path fill-rule="evenodd" clip-rule="evenodd" d="M102.322 12.0638C45.8417 12.0638 0 58.1027 0 114.814C0 171.52 45.8417 217.561 102.314 217.561C158.794 217.561 204.642 171.52 204.642 114.814C204.642 58.1006 158.794 12.0576 102.322 12.0576V12.0638ZM161.66 116.374C157.698 125.958 149.975 136.666 137.141 149.594C124.532 162.301 113.678 170.095 104.36 174.333C98.5954 177.013 92.8166 178.122 86.8178 177.905C74.2216 178.141 62.08 173.23 53.1938 164.312C44.2068 155.348 39.2588 143.113 39.4953 130.425C39.2342 124.628 40.5442 118.829 42.9688 113.263C46.9296 103.671 54.6642 92.748 67.4886 80.0431C80.3171 67.113 90.9513 59.3129 100.489 55.2941C105.968 52.7085 111.989 51.4921 118.04 51.7316C130.55 51.5644 142.597 56.4671 151.427 65.3287C160.375 74.2317 165.321 86.379 165.132 98.9972C165.387 105.013 164.077 110.804 161.652 116.38" fill="url(#paint0_linear_1155_2403)"/>
</g>
<path fill-rule="evenodd" clip-rule="evenodd" d="M152.767 97.448C152.767 115.816 137.907 130.724 119.62 130.724C101.322 130.724 86.4756 115.816 86.4756 97.448C86.4756 79.0701 101.322 64.1533 119.62 64.1533C137.911 64.1533 152.767 79.0659 152.767 97.448Z" fill="url(#paint1_linear_1155_2403)"/>
<defs>
<linearGradient id="paint0_linear_1155_2403" x1="22.5103" y1="176.253" x2="175.36" y2="43.8447" gradientUnits="userSpaceOnUse">
<stop stop-color="#575DF2"/>
<stop offset="1" stop-color="#32A8FF"/>
</linearGradient>
<linearGradient id="paint1_linear_1155_2403" x1="26.2105" y1="181.572" x2="174.228" y2="42.8623" gradientUnits="userSpaceOnUse">
<stop stop-color="#575DF2"/>
<stop offset="1" stop-color="#32A8FF"/>
</linearGradient>
</defs>
</svg>
